<?xml version="1.0" encoding="UTF-8"?><svg xmlns="http://www.w3.org/2000/svg" viewBox="0 0 2658.52 2561.56"><g id="a"><rect x="117.05" y="30.25" width="2482.36" height="2482.36" rx="370.12" ry="370.12" style="stroke:#00ff04; stroke-miterlimit:10;"/></g><g id="b"><rect x="300.05" y="213.44" width="1029.21" height="1029.21" rx="319.77" ry="319.77" style="fill:#ffc700; stroke:#00ff04; stroke-miterlimit:10;"/></g><g id="c"><rect x="1388.2" y="187.83" width="1029.21" height="1029.21" rx="319.77" ry="319.77" style="fill:red; stroke:#00ff04; stroke-miterlimit:10;"/></g><g id="d"><rect x="1408.5" y="1310.44" width="1029.21" height="1029.21" rx="319.77" ry="319.77" style="fill:#0c0; stroke:#00ff04; stroke-miterlimit:10;"/></g><g id="e"><rect x="300.05" y="1310.44" width="1029.21" height="1029.21" rx="319.77" ry="319.77" style="fill:#30f; stroke:#00ff04; stroke-miterlimit:10;"/></g><g id="f"><rect x="343.42" y="255.13" width="2021.41" height="2021.41" rx="395.98" ry="395.98" transform="translate(1291.7 -586.76) rotate(45)" style="fill:#f60; stroke:#00ff04; stroke-miterlimit:10;"/></g><g id="g"><g><path d="M346.29,1008.42v209.3h320v-209.3c0-29.91,6.72-52.33,20.17-67.28,13.45-14.94,31.14-22.42,53.08-22.42s40.28,7.41,54.06,22.19c13.78,14.8,20.69,37.33,20.69,67.58v575.97c0,30.27-6.98,52.88-20.94,67.83s-31.89,22.44-53.81,22.44-40.05-7.56-53.33-22.67c-13.28-15.12-19.92-37.64-19.92-67.56v-245.77H346.29v245.77c0,30.25-6.98,52.86-20.94,67.81-13.95,14.94-31.89,22.42-53.81,22.42s-40.05-7.56-53.33-22.69-19.92-37.64-19.92-67.58V1008.48c0-29.92,6.55-52.36,19.67-67.33,13.12-14.95,30.98-22.44,53.58-22.44s40.28,7.41,54.06,22.19,20.69,37.3,20.69,67.52Z" style="fill:#fff;"/><path d="M1126.25,1552.13l-117.5-465.42v504.28c0,27.91-6.23,48.84-18.69,62.8-12.45,13.94-28.97,20.92-49.56,20.92s-36.2-6.91-48.83-20.7c-12.62-13.81-18.92-34.84-18.92-63.12V1012.06c0-31.94,8.31-53.47,24.95-64.62,16.62-11.14,39.08-16.72,67.36-16.72h45.91c27.61,0,47.66,2.5,60.12,7.5s21.7,13.98,27.69,26.97c5.98,13,12.81,34.14,20.47,63.44l106.5,401.09,106.34-401.09c7.66-29.3,14.47-50.44,20.47-63.44,6-12.98,15.23-21.97,27.72-26.97,12.47-5,32.53-7.5,60.17-7.5h45.92c28.3,0,50.77,5.58,67.41,16.72,16.64,11.16,24.97,32.69,24.97,64.62v578.83c0,27.94-6.23,48.91-18.69,62.88-12.45,13.95-29.14,20.95-50.06,20.95-19.59,0-35.7-6.98-48.33-20.92-12.62-13.95-18.92-34.89-18.92-62.8v-504.28l-117.5,465.42c-7.67,30.23-13.92,52.41-18.75,66.53-4.84,14.12-13.75,26.98-26.75,38.61-13,11.62-31,17.44-54,17.44-17.34,0-32-3.75-44-11.2-12-7.47-21.34-17.03-28-28.66-6.67-11.62-11.92-24.5-15.75-38.62-3.84-14.11-7.75-28.81-11.75-44.09Z" style="fill:#fff;"/><path d="M2180.17,1547.06l-118.31-438.34-119.81,438.34c-9.31,33.25-16.72,57.09-22.2,71.56-5.5,14.47-15.06,27.42-28.7,38.89-13.66,11.47-31.8,17.2-54.42,17.2-18.31,0-33.36-3.42-45.17-10.22-11.81-6.81-21.39-16.45-28.7-28.92-7.33-12.47-13.31-27.27-17.97-44.39s-8.83-33-12.48-47.62l-121.8-492.19c-7.33-28.59-10.98-50.36-10.98-65.33,0-18.95,6.66-34.91,19.97-47.88s29.78-19.45,49.42-19.45c26.95,0,45.09,8.66,54.41,25.94s17.47,42.38,24.47,75.28l95.84,426.78,107.31-399.36c7.98-30.58,15.14-53.84,21.47-69.8,6.31-15.95,16.64-29.75,30.95-41.39,14.31-11.62,33.78-17.45,58.41-17.45s44.34,6.08,58.16,18.2,23.38,25.34,28.7,39.64c5.31,14.3,12.47,37.89,21.47,70.8l108.31,399.36,95.84-426.78c4.66-22.27,9.08-39.72,13.23-52.34s11.3-23.94,21.45-33.91,24.88-14.97,44.19-14.97,35.69,6.41,49.17,19.2c13.47,12.8,20.22,28.84,20.22,48.12,0,13.62-3.67,35.41-10.98,65.33l-121.8,492.19c-8.33,33.25-15.23,57.61-20.72,73.06-5.5,15.47-14.81,29.02-27.95,40.64-13.16,11.62-31.7,17.45-55.66,17.45-22.64,0-40.78-5.66-54.42-16.95-13.66-11.3-23.14-24.02-28.45-38.14-5.33-14.12-12.81-38.31-22.45-72.56Z" style="fill:#fff;"/></g></g></svg>